<?xml version="1.0" standalone="no"?>
<!DOCTYPE svg PUBLIC "-//W3C//DTD SVG 20010904//EN"
 "http://www.w3.org/TR/2001/REC-SVG-20010904/DTD/svg10.dtd">
<svg version="1.0" xmlns="http://www.w3.org/2000/svg"
 width="480.000000pt" height="480.000000pt" viewBox="0 0 480.000000 480.000000"
 preserveAspectRatio="xMidYMid meet">
<metadata>
Created by potrace 1.14, written by Peter Selinger 2001-2017
</metadata>
<g transform="translate(0.000000,480.000000) scale(0.100000,-0.100000)"
fill="#000000" stroke="none">
<path d="M2185 4225 c-92 -16 -174 -44 -325 -113 -140 -64 -312 -229 -394
-379 -26 -48 -68 -122 -92 -162 -57 -99 -79 -192 -71 -315 5 -83 3 -100 -29
-205 -37 -124 -43 -191 -18 -211 31 -27 44 -79 43 -181 0 -100 11 -160 37
-190 10 -11 12 -23 6 -40 -9 -22 -10 -22 -22 15 -14 43 -65 106 -86 106 -25 0
-15 -23 28 -67 37 -38 43 -51 59 -130 10 -48 24 -139 30 -202 12 -107 11 -115
-6 -127 -18 -13 -17 -14 7 -14 25 0 27 -4 43 -92 54 -304 85 -386 181 -481 55
-55 169 -120 259 -148 22 -6 60 -30 85 -52 51 -45 262 -151 330 -166 103 -23
210 -9 349 46 74 29 201 99 216 120 6 7 44 22 85 34 116 31 236 93 295 153 67
67 103 142 174 361 l58 180 34 5 c31 5 32 7 12 14 -13 4 -23 15 -23 25 0 42
31 217 50 289 25 89 40 116 86 155 36 30 44 57 19 57 -25 0 -64 -45 -91 -105
-14 -30 -28 -55 -30 -55 -3 0 -4 52 -3 115 1 64 -1 119 -5 122 -15 15 -3 46
29 74 19 17 47 56 62 87 24 49 28 68 27 137 -1 53 -9 100 -22 137 -19 52 -20
65 -10 146 14 109 -5 219 -55 326 -19 39 -40 91 -48 116 -21 69 -52 129 -102
196 -25 34 -53 77 -62 95 -29 56 -115 132 -190 168 -38 18 -78 37 -88 43 -30
15 -199 79 -237 90 -141 38 -442 50 -595 23z m355 -885 c25 -6 82 -14 128 -20
45 -5 90 -13 100 -18 9 -5 46 -15 82 -22 61 -11 117 -26 200 -51 47 -15 185
-85 235 -119 56 -39 100 -82 109 -104 6 -17 3 -18 -36 -11 -24 4 -74 13 -113
19 -60 11 -76 18 -111 52 -77 76 -141 89 -286 59 -78 -16 -194 -69 -243 -110
l-30 -26 29 11 c16 6 54 13 85 15 31 2 90 7 131 10 41 3 87 2 102 -2 54 -16
33 -28 -62 -35 -166 -13 -262 -27 -278 -40 -26 -22 -45 -80 -51 -158 l-6 -75
-19 35 c-12 22 -20 62 -22 110 l-4 76 45 28 c25 16 43 31 41 33 -3 3 -25 -9
-50 -26 -33 -23 -56 -31 -88 -31 l-44 0 -2 -43 c-2 -24 -7 -56 -12 -73 -8 -28
-8 -27 -11 16 -2 25 -3 58 -4 74 -1 29 -3 30 -52 30 -36 1 -58 7 -74 21 l-24
20 17 -21 c12 -14 20 -47 24 -107 6 -75 5 -87 -9 -87 -18 0 -23 13 -32 89 -9
67 -42 104 -106 121 -89 23 -99 28 -49 29 42 0 88 -7 135 -23 11 -4 6 1 -11
11 -17 10 -46 30 -65 45 -77 60 -220 108 -324 108 -66 0 -84 -8 -150 -70 -38
-36 -44 -38 -127 -45 -102 -8 -105 -4 -55 61 45 60 229 149 403 194 60 15 241
48 349 63 46 7 285 -3 335 -13z m-556 -384 c38 -3 73 -11 77 -17 4 -6 12 -8
18 -5 6 4 11 2 11 -3 0 -6 3 -10 8 -9 15 4 52 -23 52 -39 0 -15 -2 -14 -14 2
-13 18 -21 18 -177 7 -239 -18 -282 -25 -366 -67 -84 -42 -151 -115 -181 -198
l-17 -49 -5 64 c-7 94 6 223 27 254 27 42 75 56 208 61 66 3 122 8 125 10 5 5
59 2 234 -11z m1164 -17 c181 -19 206 -50 204 -242 -1 -66 -4 -122 -7 -125 -3
-3 -5 18 -5 46 0 49 -3 55 -52 106 -104 106 -228 142 -563 162 -129 7 -143 1
-152 -64 -6 -48 -2 -50 38 -21 23 16 37 19 74 13 25 -3 45 -8 45 -10 0 -2 -18
-20 -39 -39 -42 -38 -81 -110 -81 -147 0 -15 11 -2 31 40 51 104 136 155 264
156 67 0 88 -4 130 -26 72 -37 145 -124 145 -171 0 -10 5 -15 10 -12 24 15 -6
105 -50 153 -17 18 -18 22 -5 22 24 0 87 -35 111 -62 27 -29 59 -93 69 -136 3
-18 11 -30 16 -26 14 9 10 -15 -8 -46 -9 -16 -26 -32 -37 -36 -12 -3 -111 -9
-221 -12 -126 -3 -191 -8 -175 -13 35 -12 -196 -1 -241 11 -38 10 -89 45 -89
60 0 5 17 0 38 -12 l37 -22 -28 31 c-37 39 -46 84 -47 211 0 103 16 172 40
172 6 0 8 5 4 12 -5 7 -3 8 5 4 7 -5 20 -1 30 8 12 11 30 15 55 12 21 -3 34
-1 31 5 -8 13 302 12 423 -2z m-984 -147 c6 -78 -17 -218 -42 -252 -11 -14
-39 -33 -63 -42 -32 -12 -38 -17 -21 -17 13 -1 33 4 45 10 18 10 20 9 9 -2
-10 -11 -62 -13 -265 -11 -332 4 -427 20 -427 69 0 14 3 13 16 -5 21 -31 30
-21 37 38 3 27 15 71 26 96 24 52 96 128 113 118 6 -4 17 1 24 10 8 12 14 14
19 6 4 -6 0 -17 -8 -23 -23 -18 -67 -106 -67 -134 0 -33 14 -21 42 34 59 118
207 173 341 127 62 -21 135 -87 163 -149 17 -36 24 -44 24 -27 0 38 -31 94
-78 139 -35 34 -40 44 -28 49 18 7 83 1 109 -10 14 -7 17 -3 17 20 0 47 8 22
14 -44z m-797 -74 c-2 -13 -4 -5 -4 17 -1 22 1 32 4 23 2 -10 2 -28 0 -40z
m1064 -35 c29 -17 38 -37 54 -123 9 -49 60 -152 87 -177 38 -35 99 -61 161
-68 60 -7 82 8 25 18 -35 6 -133 45 -127 51 2 2 63 -1 134 -6 132 -10 508 -4
540 9 16 6 17 2 12 -33 -10 -60 -26 -66 -141 -59 -55 3 -104 9 -109 12 -5 3
-8 0 -5 -8 3 -8 22 -17 44 -20 77 -14 100 -18 151 -28 82 -16 86 -12 99 102 6
49 26 89 38 76 6 -6 -13 -209 -24 -264 -6 -27 -24 -75 -39 -105 -18 -35 -38
-104 -56 -190 -48 -241 -82 -320 -178 -405 -61 -55 -126 -93 -245 -140 l-94
-37 -51 17 c-64 21 -144 72 -185 119 -33 38 -41 65 -45 166 -2 58 -5 66 -27
77 -33 17 -202 17 -218 1 -7 -7 -12 -36 -12 -66 0 -85 -19 -141 -61 -183 -38
-38 -171 -109 -203 -109 -10 0 -63 23 -118 51 -110 57 -203 135 -245 206 -33
57 -76 195 -108 345 -14 64 -34 135 -46 157 -26 51 -39 141 -37 261 1 52 3 77
5 55 2 -22 6 -55 9 -74 l5 -33 62 6 c34 4 76 9 92 11 66 10 151 18 175 16 55
-3 170 11 170 21 0 7 -25 8 -72 4 -140 -12 -350 -15 -373 -4 -19 8 -43 63 -33
74 2 1 50 -2 108 -6 136 -12 462 -12 520 0 25 4 47 7 48 5 7 -7 -97 -55 -118
-55 -11 0 -20 -5 -20 -11 0 -14 95 -2 131 17 75 38 91 65 135 228 9 32 26 67
38 78 11 10 26 23 31 28 17 15 85 11 116 -7z m924 -170 c-9 -15 -13 -19 -9 -8
4 11 9 34 13 50 4 25 6 26 9 8 2 -12 -4 -34 -13 -50z"/>
<path d="M1560 2930 c0 -13 11 -13 30 0 12 8 11 10 -7 10 -13 0 -23 -4 -23
-10z"/>
<path d="M3180 2910 c20 -13 40 -13 40 0 0 6 -12 10 -27 10 -22 0 -25 -2 -13
-10z"/>
<path d="M2798 2770 c-89 -47 -120 -170 -64 -255 15 -23 22 -25 103 -25 70 0
92 4 120 21 28 18 36 19 49 8 14 -11 19 -10 35 10 30 37 28 116 -4 174 -44 80
-156 110 -239 67z m50 -81 c6 -49 -58 -65 -73 -18 -9 27 13 51 44 47 20 -2 27
-9 29 -29z"/>
<path d="M2685 2470 c19 -8 83 -14 74 -6 -2 2 -24 6 -49 9 -30 4 -38 3 -25 -3z"/>
<path d="M2777 2459 c7 -7 15 -10 18 -7 3 3 -2 9 -12 12 -14 6 -15 5 -6 -5z"/>
<path d="M1826 2796 c-98 -36 -154 -154 -111 -235 15 -30 52 -44 148 -56 38
-5 54 -2 82 15 36 22 61 19 51 -6 -4 -11 -1 -12 13 -5 34 19 56 104 41 161
-27 100 -133 159 -224 126z m8 -69 c26 -19 18 -61 -12 -65 -44 -7 -67 32 -36
62 19 19 25 20 48 3z"/>
<path d="M2140 2197 c0 -57 84 -90 225 -89 103 1 161 18 188 54 27 36 14 52
-25 32 -64 -33 -317 -26 -357 10 -24 22 -31 20 -31 -7z"/>
<path d="M1900 1994 c0 -9 14 -29 32 -46 35 -32 121 -81 101 -57 -7 9 -8 20
-3 28 10 17 14 17 375 4 254 -9 312 -16 283 -34 -10 -7 -10 -9 2 -9 36 0 135
80 127 104 -5 14 -2 14 -162 -14 -222 -39 -412 -33 -640 21 -98 23 -115 24
-115 3z"/>
<path d="M2148 1853 c23 -2 61 -2 85 0 23 2 4 4 -43 4 -47 0 -66 -2 -42 -4z"/>
<path d="M2558 1843 c6 -2 18 -2 25 0 6 3 1 5 -13 5 -14 0 -19 -2 -12 -5z"/>
<path d="M3526 1985 c-11 -8 -15 -15 -9 -15 6 0 16 7 23 15 16 19 11 19 -14 0z"/>
</g>
</svg>
